<svg width="10" height="9" viewBox="0 0 10 9" fill="none" xmlns="http://www.w3.org/2000/svg">
<path d="M5.03906 0.000434025C4.96664 -0.000529926 4.8943 3.23785e-05 4.8218 0.00292423C4.43594 0.0182671 4.0507 0.0908848 3.6768 0.218849C3.67602 0.21909 3.67508 0.218608 3.67438 0.218849C2.71195 0.540889 1.88977 1.22385 1.37453 2.11663C1.37391 2.11767 1.37266 2.11815 1.37211 2.11912C0.985234 2.78923 0.782031 3.56207 0.78125 4.33821H0L1.09375 6.26612L2.1875 4.33821H1.40625C1.4075 3.67606 1.58039 3.01423 1.90922 2.44542C2.34672 1.6859 3.05328 1.10127 3.86969 0.828789H3.87211V0.826299C5.13938 0.391959 6.59219 0.748701 7.54641 1.72245L7.98586 1.26554C7.19563 0.459114 6.12539 0.014813 5.03906 0.000353695V0.000434025ZM8.90625 2.41031L7.8125 4.33821H8.59375C8.59117 4.99788 8.41836 5.65682 8.09078 6.22346C7.65328 6.98298 6.94672 7.56761 6.13031 7.84009H6.12789C4.85203 8.27491 3.40188 7.91897 2.45602 6.94642L2.01414 7.40077C3.13023 8.54835 4.81844 8.96197 6.3232 8.45011C6.32359 8.44955 6.32516 8.45027 6.32563 8.45011C7.28914 8.12767 8.11281 7.44414 8.62789 6.54984C9.01437 5.88118 9.21711 5.11235 9.21875 4.33829H10L8.90625 2.41039V2.41031Z" fill="#4A4A4A"/>
</svg>
